<svg xmlns="http://www.w3.org/2000/svg" width="200" height="200" viewBox="0 0 48 48" fill="none">
    <rect width="48" height="48" rx="3" fill="__BACKGROUND__"/>
    <g transform="translate(24 24) scale(0.7) translate(-24 -24)">
        <path
                fill-rule="evenodd"
                clip-rule="evenodd"
                d="M27.9779 10.8269C30.8518 10.1883 32.8378 9.75023 34.3682 9.59217C35.8682 9.43726 36.622 9.59148 37.1502 9.87807C37.6058 10.1253 38.0134 10.4522 38.3535 10.8433C38.7478 11.2968 39.0619 11.9992 39.2361 13.4971C39.4138 15.0255 39.417 17.0593 39.417 20.0036V24.0581C38.1658 23.2577 36.6882 22.7917 35.0836 22.7917C30.3688 22.7917 26.7503 26.8158 26.7503 31.5208C26.7503 36.2259 30.3688 40.25 35.0836 40.25C39.7985 40.25 43.417 36.2259 43.417 31.5208C43.417 31.1194 43.3906 30.7228 43.3395 30.3333H43.417V20.0036C43.4171 17.0896 43.4171 14.822 43.2093 13.0352C42.9949 11.1912 42.5318 9.55237 41.3718 8.21848C40.7177 7.46631 39.9339 6.8376 39.0578 6.36223C37.504 5.51922 35.8038 5.42264 33.9573 5.61333C32.1681 5.79811 29.9545 6.29005 27.2327 6.89496L19.6081 8.58929L18.042 8.93732V10.5417V26.4331C16.7908 25.6327 15.3132 25.1667 13.7086 25.1667C8.99375 25.1667 5.37529 29.1908 5.37529 33.8958C5.37529 38.6009 8.99375 42.625 13.7086 42.625C18.2907 42.625 21.8373 38.8243 22.0334 34.2917H22.042V12.146L27.9779 10.8269ZM35.0836 26.7917C32.8029 26.7917 30.7503 28.793 30.7503 31.5208C30.7503 34.2486 32.8029 36.25 35.0836 36.25C37.3644 36.25 39.417 34.2486 39.417 31.5208C39.417 28.793 37.3644 26.7917 35.0836 26.7917ZM13.7086 29.1667C11.4279 29.1667 9.37529 31.168 9.37529 33.8958C9.37529 36.6236 11.4279 38.625 13.7086 38.625C15.9894 38.625 18.042 36.6236 18.042 33.8958C18.042 31.168 15.9894 29.1667 13.7086 29.1667Z"
                fill="__ICON__"
        />
    </g>
</svg>
